<svg xmlns="http://www.w3.org/2000/svg" x="0px" y="0px" viewBox="0 0 469.824 469.824"><path d="M188.885 67.36C147.84 26.336 67.52 21.579 10.667 21.579 4.779 21.579 0 26.357 0 32.245c0 56.853 4.736 137.173 45.781 178.219 17.323 17.323 43.883 25.067 70.208 25.067 28.608 0 56.96-9.152 72.896-25.088 30.571-30.571 36.182-106.923 0-143.083zm-15.082 128.021c-22.827 22.805-86.208 26.709-112.917 0-33.131-33.13-38.87-100.437-39.489-152.405 51.968.619 119.275 6.357 152.405 39.488 26.71 26.709 22.806 90.112.001 112.917z"/><path d="M459.157 63.776c-56.853 0-137.173 4.736-178.219 45.781-36.181 36.16-30.571 112.512 0 143.083 15.936 15.915 44.267 25.067 72.875 25.067 26.325 0 52.864-7.723 70.229-25.045 41.024-41.045 45.781-121.365 45.781-178.219.001-5.888-4.778-10.667-10.666-10.667zm-50.24 173.781c-26.709 26.709-90.112 22.805-112.917 0-22.805-22.805-26.709-86.208 0-112.917 33.131-33.131 100.437-38.869 152.405-39.488-.618 51.989-6.357 119.296-39.488 152.405z"/><path d="M382.123 156.107c-2.517-5.355-9.728-7.189-15.04-4.715-81.813 38.464-122.005 105.536-140.267 174.485-22.592-146.603-87.936-191.296-115.648-210.261-3.456-2.368-6.144-4.096-7.637-5.568-4.16-4.16-10.923-4.16-15.083 0s-4.16 10.923 0 15.083c2.112 2.091 5.76 4.715 10.688 8.085 31.232 21.355 114.197 78.123 114.197 304.363 0 5.888 4.779 10.667 10.667 10.667s10.667-4.779 10.667-10.645c0-91.413 24.555-211.925 141.504-266.88 0-.021 1.728-.832 1.728-.832 5.312-2.518 6.741-8.449 4.224-13.782z"/></svg>