<svg xmlns="http://www.w3.org/2000/svg" x="0px" y="0px" viewBox="0 0 529.286 529.286"><path d="M358.099 74.604S330.002 61.96 330.002 91.5s27.837 49.363 28.19 49.3c49.147 32.081 81.629 87.559 81.629 150.629 0 97.746-78.016 177.269-175.177 179.7-97.161-2.431-175.177-81.954-175.177-179.7 0-63.071 32.483-118.547 81.629-150.629.353.063 28.189-19.761 28.189-49.3s-28.097-16.896-28.097-16.896C88.7 111.958 31.31 194.983 31.31 291.429c0 129.865 104.053 235.413 233.334 237.857 129.281-2.445 233.332-107.992 233.332-237.857.001-96.446-57.389-179.471-139.877-216.825z"/><path d="M266.278 0c-26.143 0-34.312 19.141-34.312 26.627v234.318c0 7.487 8.17 26.627 34.312 26.627 26.143 0 31.045-19.141 31.045-26.627V26.627C297.322 19.14 292.421 0 266.278 0z"/></svg>