<svg xmlns="http://www.w3.org/2000/svg" viewBox="0 0 512 512"><path d="M482.195 226.196C482.195 101.471 380.725 0 256.001 0S29.805 101.471 29.805 226.196c0 7.409 6.007 13.416 13.416 13.416s13.416-6.008 13.416-13.416c0-109.93 89.434-199.363 199.363-199.363s199.363 89.434 199.363 199.363c0 109.928-89.434 199.362-199.363 199.362h-23.276l33.282-37.255c4.937-5.525 4.458-14.007-1.067-18.944-5.525-4.937-14.008-4.457-18.944 1.068l-47.576 53.255c-7.788 8.718-7.788 21.866 0 30.584l47.576 53.255a13.379 13.379 0 0 0 10.01 4.478c3.181 0 6.375-1.126 8.934-3.41 5.526-4.937 6.004-13.419 1.067-18.944l-33.282-37.255H256c124.725 0 226.195-101.471 226.195-226.194z" stroke="#000"/><path d="M254.648 115.054c-49.802.024-90.184 40.406-90.184 90.232v42.51a7.166 7.166 0 0 0 2.845 5.714l38.78 29.432v24.268a7.163 7.163 0 0 0 7.173 7.172h5.761a7.162 7.162 0 0 0 7.173-7.172v-9.85a4.54 4.54 0 0 1 4.543-4.544 4.54 4.54 0 0 1 4.542 4.543v9.85a7.162 7.162 0 0 0 7.173 7.173h.24a7.162 7.162 0 0 0 7.172-7.172v-9.85a4.54 4.54 0 0 1 4.543-4.544h.478a4.54 4.54 0 0 1 4.542 4.543v9.85a7.162 7.162 0 0 0 7.173 7.173h.24a7.162 7.162 0 0 0 7.172-7.172v-9.85a4.54 4.54 0 0 1 4.543-4.544 4.54 4.54 0 0 1 4.542 4.543v9.85a7.162 7.162 0 0 0 7.173 7.173h5.786a7.162 7.162 0 0 0 7.172-7.172v-24.292l38.78-29.432a7.168 7.168 0 0 0 2.845-5.714v-42.51c-.023-49.802-40.405-90.184-90.207-90.208zM216.944 248.49c-13.724 0-24.866-11.141-24.866-24.865 0-13.723 11.142-24.866 24.866-24.866 13.723 0 24.865 11.143 24.865 24.866 0 13.748-11.142 24.866-24.866 24.866zm44.78 18.29h-14.13c-3.275 0-5.355-3.514-3.777-6.383l7.077-12.839c1.626-2.965 5.905-2.965 7.532 0l7.077 12.84c1.554 2.868-.527 6.383-3.778 6.383zm30.628-18.29c-13.723 0-24.866-11.141-24.866-24.865 0-13.723 11.143-24.866 24.866-24.866 13.724 0 24.865 11.143 24.865 24.866 0 13.748-11.117 24.866-24.866 24.866z" stroke="#000"/></svg>