<svg xmlns="http://www.w3.org/2000/svg" x="0px" y="0px" viewBox="0 0 374.941 374.941"><path d="M282.264 290.76H95.48v31.759h186.784V290.76zm-12.728 20.312h-25.567v-8.865h25.567v8.865zM182.338 54.493c0-5.664 4.604-10.271 10.27-10.271 5.669 0 10.271 4.607 10.271 10.271s-4.603 10.271-10.271 10.271c-5.666 0-10.27-4.608-10.27-10.271zm66.654 0c0-5.664 4.604-10.271 10.268-10.271 5.669 0 10.276 4.607 10.276 10.271s-4.607 10.271-10.267 10.271-10.277-4.608-10.277-10.271zm33.272 152.803H95.48v31.756h186.784v-31.756zm-12.728 20.311h-25.567v-8.87h25.567v8.87zM53.927 0v374.941h267.087V0H53.927zm205.342 27.412c14.927 0 27.076 12.148 27.076 27.081 0 14.934-12.149 27.081-27.076 27.081-14.938 0-27.087-12.147-27.087-27.081 0-14.933 12.15-27.081 27.087-27.081zm-66.661 0c14.936 0 27.081 12.148 27.081 27.081 0 14.934-12.146 27.081-27.081 27.081-14.932 0-27.081-12.147-27.081-27.081 0-14.933 12.149-27.081 27.081-27.081zM299.074 339.33H78.671v-65.38h220.402v65.38zm0-83.47H78.671v-65.375h220.402v65.375zm0-84.633H78.671v-65.374h220.402v65.374zm-16.81-48.564H95.48v31.754h186.784v-31.754zm-12.728 19.147h-25.567v-8.87h25.567v8.87z"/></svg>