<svg xmlns="http://www.w3.org/2000/svg" width="833.7" height="833.7"><path d="M416.8 0C208.5.1 39.6 169 39.6 377.399V555.2c0 9.399 4.4 18.199 11.9 23.899L213.7 702.2v101.5c0 16.6 13.4 30 30 30h24.1c16.6 0 30-13.4 30-30v-41.2c0-10.5 8.5-19 19-19s19 8.5 19 19v41.2c0 16.6 13.4 30 30 30h1c16.6 0 30-13.4 30-30v-41.2c0-10.5 8.5-19 19-19h2c10.5 0 19 8.5 19 19v41.2c0 16.6 13.4 30 30 30h1c16.6 0 30-13.4 30-30v-41.2c0-10.5 8.5-19 19-19s19 8.5 19 19v41.2c0 16.6 13.4 30 30 30H590c16.6 0 30-13.4 30-30V702.1L782.2 579c7.5-5.7 11.899-14.5 11.899-23.9V377.3C794 169 625.1.1 416.8 0zM259.1 558.1c-57.4 0-104-46.6-104-104 0-57.399 46.6-104 104-104s104 46.601 104 104c0 57.5-46.6 104-104 104zm187.3 76.5h-59.1c-13.7 0-22.4-14.7-15.8-26.7l29.6-53.699c6.8-12.4 24.7-12.4 31.5 0l29.601 53.699c6.5 11.999-2.201 26.7-15.801 26.7zm128.1-76.5c-57.4 0-104-46.6-104-104 0-57.399 46.6-104 104-104 57.399 0 104 46.601 104 104 0 57.5-46.5 104-104 104z"/></svg>