<?xml version="1.0" encoding="iso-8859-1"?>
<!-- Generator: Adobe Illustrator 18.0.0, SVG Export Plug-In . SVG Version: 6.00 Build 0)  -->
<!DOCTYPE svg PUBLIC "-//W3C//DTD SVG 1.1//EN" "http://www.w3.org/Graphics/SVG/1.1/DTD/svg11.dtd">
<svg version="1.1" id="Capa_1" xmlns="http://www.w3.org/2000/svg" xmlns:xlink="http://www.w3.org/1999/xlink" x="0px" y="0px"
	 viewBox="0 0 333.316 333.316" style="enable-background:new 0 0 333.316 333.316;" xml:space="preserve">
<path d="M315.797,224.574l-5.557-20.818l-39.684,10.592l-33.572-19.441l41.764-18.377v-19.75l-41.767-18.377l33.572-19.439
	l39.689,10.59l5.557-20.818l-18.861-5.025l19.361-11.197l-10.82-18.645l-19.324,11.188l5.029-18.855l-20.818-5.551l-10.588,39.674
	l-33.473,19.338l4.918-45.148l-17.061-9.877l-36.758,26.892V52.824l29.045-29.018L191.221,8.539l-13.816,13.807V0h-21.531v22.346
	L142.064,8.539l-15.236,15.268l29.045,29.018v38.703l-36.756-26.892l-17.061,9.877l4.924,45.148l-33.477-19.336l-10.59-39.676
	l-20.816,5.553l5.027,18.854l-19.32-11.188L17.018,92.512l19.322,11.197l-18.857,5.025l5.557,20.818l39.684-10.59l33.576,19.439
	l-41.771,18.377v19.75l41.768,18.377l-33.576,19.441l-39.678-10.592l-5.557,20.818l18.853,5.025l-19.32,11.195l10.787,18.652
	l19.318-11.18l-5.029,18.84l20.818,5.559l10.59-39.682l33.479-19.338l-4.924,45.15l17.061,9.879l36.756-26.893V280.5l-29.045,29.004
	l15.236,15.266l13.809-13.805v22.352h21.531v-22.352l13.816,13.805l15.229-15.266L177.404,280.5v-38.717l36.758,26.893l17.061-9.879
	l-4.92-45.15l33.475,19.338l10.59,39.682l20.818-5.559l-5.029-18.838l19.322,11.178l10.82-18.652l-19.361-11.193L315.797,224.574z
	 M247.668,166.654l-33.779,14.885l-25.75-14.887l25.746-14.877L247.668,166.654z M207.148,96.471l-3.975,36.578l-25.77,14.93
	v-29.721L207.148,96.471z M126.129,96.471l29.744,21.787v29.721l-25.771-14.93L126.129,96.471z M85.609,166.654l33.783-14.879
	l25.748,14.877l-25.752,14.887L85.609,166.654z M126.129,236.84l3.973-36.582l25.771-14.924v29.717L126.129,236.84z M207.148,236.84
	l-29.744-21.789v-29.717l25.77,14.924L207.148,236.84z"/>
<g>
</g>
<g>
</g>
<g>
</g>
<g>
</g>
<g>
</g>
<g>
</g>
<g>
</g>
<g>
</g>
<g>
</g>
<g>
</g>
<g>
</g>
<g>
</g>
<g>
</g>
<g>
</g>
<g>
</g>
</svg>
