<?xml version="1.0" encoding="UTF-8" standalone="no"?><svg xmlns="http://www.w3.org/2000/svg" x="0px" y="0px" viewBox="0 0 302.4 302.4"><path d="M204.8 97.6C191.2 84 172 75.2 151.2 75.2c-20.8 0-40 8.4-53.6 22.4-13.6 13.6-22.4 32.8-22.4 53.6 0 20.8 8.8 40 22.4 53.6 13.6 13.6 32.8 22.4 53.6 22.4 20.8 0 40-8.4 53.6-22.4 13.6-13.6 22.4-32.8 22.4-53.6 0-20.8-8.4-40-22.4-53.6zm-14.4 92.8c-10 10-24 16-39.2 16-15.2 0-29.2-6-39.2-16-10-10-16-24-16-39.2 0-15.2 6-29.2 16-39.2 10-10 24-16 39.2-16 15.2 0 29.2 6 39.2 16 10 10 16 24 16 39.2 0 15.2-6 29.2-16 39.2z"/><path d="M292 140.8h-30.8c-5.6 0-10.4 4.8-10.4 10.4 0 5.6 4.8 10.4 10.4 10.4H292c5.6 0 10.4-4.8 10.4-10.4 0-5.6-4.8-10.4-10.4-10.4z"/><path d="M151.2 250.8c-5.6 0-10.4 4.8-10.4 10.4V292c0 5.6 4.8 10.4 10.4 10.4 5.6 0 10.4-4.8 10.4-10.4v-30.8c0-5.6-4.8-10.4-10.4-10.4z"/><path d="M258 243.6l-22-22c-3.6-4-10.4-4-14.4 0s-4 10.4 0 14.4l22 22c4 4 10.4 4 14.4 0s4-10.4 0-14.4z"/><path d="M151.2 0c-5.6 0-10.4 4.8-10.4 10.4v30.8c0 5.6 4.8 10.4 10.4 10.4 5.6 0 10.4-4.8 10.4-10.4V10.4c0-5.6-4.8-10.4-10.4-10.4z"/><path d="M258.4 44.4c-4-4-10.4-4-14.4 0l-22 22c-4 4-4 10.4 0 14.4 3.6 4 10.4 4 14.4 0l22-22c4-4 4-10.4 0-14.4z"/><path d="M41.2 140.8H10.4c-5.6 0-10.4 4.8-10.4 10.4 0 5.6 4.4 10.4 10.4 10.4h30.8c5.6 0 10.4-4.8 10.4-10.4 0-5.6-4.8-10.4-10.4-10.4z"/><path d="M80.4 221.6c-3.6-4-10.4-4-14.4 0l-22 22c-4 4-4 10.4 0 14.4s10.4 4 14.4 0l22-22c4-4 4-10.4 0-14.4z"/><path d="M80.4 66.4l-22-22c-4-4-10.4-4-14.4 0s-4 10.4 0 14.4l22 22c4 4 10.4 4 14.4 0s4-10.4 0-14.4z"/></svg>