<svg xmlns="http://www.w3.org/2000/svg" viewBox="0 0 512 512.00023"><path d="M315.917 0a14.95 14.95 0 00-10.58 4.453L226 84.668 146.665 4.453c-5.825-5.89-15.32-5.941-21.211-.117-5.891 5.824-5.942 15.324-.118 21.21l64.73 65.455H45c-24.812 0-45 20.187-45 45v208.362l30-22.219V136.001c0-8.27 6.73-15 15-15h256.59l40.507-30h-80.164l64.732-65.454c5.824-5.887 5.773-15.387-.118-21.211A14.948 14.948 0 00315.917 0zM106.001 151c-24.813 0-45 20.188-45 45v103.184l30-22.219v-80.964c0-8.27 6.73-15 15-15h114.575l40.506-30H106.001zM512 180.105l-30 22.219V437c0 8.27-6.73 15-15 15H144.879l-77.413 57.334A14.958 14.958 0 0076.001 512c3.84 0 7.68-1.465 10.605-4.395L112.214 482H400.79l25.605 25.605A14.941 14.941 0 00437 512c3.84 0 7.68-1.465 10.605-4.395 5.86-5.855 5.86-15.351 0-21.21l-4.39-4.395H467c24.812 0 45-20.188 45-45V180.104zm-102.478 75.897l-17.369 12.864c-.1.698-.153 1.41-.153 2.136 0 8.285 6.714 15 15 15h30c8.285 0 15-6.715 15-15 0-8.286-6.715-15-15-15h-27.478zm-48.521 35.935l-30 22.219V376c0 8.27-6.73 15-15 15h-88.76l-40.506 30h129.266c24.812 0 45-20.188 45-45v-84.065zM407 316.001c-8.286 0-15 6.714-15 15 0 8.285 6.714 15 15 15h30c8.285 0 15-6.715 15-15 0-8.286-6.715-15-15-15h-30zm0 60c-8.286 0-15 6.714-15 15 0 8.285 6.714 15 15 15h30c8.285 0 15-6.715 15-15 0-8.286-6.715-15-15-15h-30z"/><path d="M484.314 57.623l27.639 40.291L27.686 462.006.047 421.716z"/></svg>