<svg viewBox="0 0 512 512.00023" xmlns="http://www.w3.org/2000/svg"><path d="M467 91H261.934l64.73-65.453c5.824-5.887 5.773-15.387-.117-21.211-5.89-5.828-15.387-5.774-21.211.117L226 84.668 146.664 4.453c-5.824-5.89-15.32-5.941-21.21-.117-5.892 5.824-5.942 15.324-.118 21.21L190.066 91H45c-24.813 0-45 20.188-45 45v301c0 24.813 20.187 45 45 45h24.79l-4.395 4.395c-5.86 5.855-5.86 15.355 0 21.21C68.32 510.535 72.16 512 76 512s7.68-1.465 10.605-4.395L112.215 482h288.574l25.606 25.605C429.32 510.535 433.16 512 437 512s7.68-1.465 10.605-4.395c5.86-5.855 5.86-15.351 0-21.21l-4.39-4.395H467c24.812 0 45-20.188 45-45V136c0-24.813-20.188-45-45-45zm15 346c0 8.27-6.73 15-15 15H45c-8.27 0-15-6.73-15-15V136c0-8.27 6.73-15 15-15h422c8.27 0 15 6.73 15 15zm0 0"/><path d="M316 151H106c-24.813 0-45 20.188-45 45v180c0 24.813 20.188 45 45 45h210c24.813 0 45-20.188 45-45V196c0-24.813-20.188-45-45-45zm15 225c0 8.27-6.73 15-15 15H106c-8.27 0-15-6.73-15-15V196c0-8.27 6.73-15 15-15h210c8.27 0 15 6.73 15 15zm0 0"/><path d="M422 166c-16.543 0-30 13.457-30 30s13.457 30 30 30 30-13.457 30-30-13.457-30-30-30zm0 0"/><path d="M437 256h-30c-8.285 0-15 6.715-15 15s6.715 15 15 15h30c8.285 0 15-6.715 15-15s-6.715-15-15-15zm0 0"/><path d="M437 316h-30c-8.285 0-15 6.715-15 15s6.715 15 15 15h30c8.285 0 15-6.715 15-15s-6.715-15-15-15zm0 0"/><path d="M437 376h-30c-8.285 0-15 6.715-15 15s6.715 15 15 15h30c8.285 0 15-6.715 15-15s-6.715-15-15-15zm0 0"/></svg>