<svg xmlns="http://www.w3.org/2000/svg" x="0px" y="0px" viewBox="0 0 38.752862 38.752862"><path d="M25.268 23.206c-.547-.925-1.324-1.833-2.291-2.708.044-.112.074-.23.107-.345.747.416 1.58.95 2.51 1.628l1.454 1.059c.8.583 1.75.875 2.7.875.89 0 1.78-.257 2.544-.771.179-.113.547-.41.569-.43.267-.242.89-1.09 1.037-1.407.14-.292.348-1.037.374-1.191.729-3.62-1.675-8.59-4.23-10.451a7.2 7.2 0 0 0-5.39-1.301 7.19 7.19 0 0 0-4.728 2.89c-.771 1.06-1.276 2.445-1.534 4.092-.234.052-.463.12-.68.212a20.932 20.932 0 0 1-.16-2.713v-1.71a4.418 4.418 0 0 0-2.885-4.13 7.706 7.706 0 0 0-.656-.198c-.347-.072-1.341-.075-1.68-.01-.318.06-1.004.319-1.134.384-3.202 1.473-5.686 6.12-5.686 9.136a6.937 6.937 0 0 0 6.929 6.929c1.239 0 2.617-.377 4.094-1.091.037.035.08.064.119.098-.766.65-1.745 1.335-2.952 2.049l-1.473.87a4.423 4.423 0 0 0-2.09 4.593c.033.207.16.657.163.666.115.336.62 1.197.848 1.452.213.244.786.704.909.783 1.454 1.007 3.503 1.452 5.514 1.452 2 0 3.963-.441 5.26-1.208 3.29-1.95 4.385-6.212 2.438-9.504zM21.54 12.232a5.209 5.209 0 0 1 3.424-2.092 5.201 5.201 0 0 1 3.9.942c1.98 1.44 3.999 5.703 3.446 8.45a8.353 8.353 0 0 1-.21.702 8.831 8.831 0 0 1-.553.775 4.566 4.566 0 0 1-.345.26c-.905.609-2.1.592-2.976-.045l-1.454-1.06c-1.403-1.022-2.637-1.77-3.697-2.258a3.99 3.99 0 0 0-2.676-2.675c.217-1.222.599-2.255 1.14-3zm-4.28 6.812c0-1.103.897-2 2-2s2 .897 2 2-.897 2-2 2-2-.897-2-2zm-9.751-2.93c0-2.31 2.129-6.218 4.53-7.322.113-.05.547-.205.642-.228a8.06 8.06 0 0 1 .885-.01c.042.01.26.069.388.119a2.421 2.421 0 0 1 1.596 2.262v1.709c0 1.678.135 3.069.388 4.174a3.98 3.98 0 0 0-.68 2.226c0 .422.084.82.206 1.202-1.122.519-2.143.798-3.027.798a4.934 4.934 0 0 1-4.928-4.93zm14.3 14.873c-1.991 1.178-6.447 1.335-8.623-.172a7.895 7.895 0 0 1-.525-.438 8.01 8.01 0 0 1-.46-.763 4.328 4.328 0 0 1-.095-.39 2.425 2.425 0 0 1 1.137-2.53l1.474-.871c1.657-.98 2.944-1.933 3.879-2.844.217.037.437.067.664.067.964 0 1.837-.357 2.529-.927.745.695 1.34 1.4 1.758 2.106a4.943 4.943 0 0 1-1.737 6.762z"/><path d="M19.377 0C8.687 0 0 8.687 0 19.377s8.687 19.375 19.377 19.375 19.375-8.685 19.375-19.375S30.067 0 19.377 0zm0 1.943c9.64 0 17.434 7.794 17.434 17.434s-7.794 17.434-17.434 17.434S1.943 29.017 1.943 19.377 9.737 1.943 19.377 1.943z" /></svg>