<svg xmlns="http://www.w3.org/2000/svg" viewBox="0 0 438 438"><path d="M399 381h-21.5V224h8.5a7.5 7.5 0 0 0 7.5-7.5V38.528C400.82 35.553 406 28.375 406 20c0-11.028-8.972-20-20-20s-20 8.972-20 20c0 8.375 5.18 15.553 12.5 18.528V59h-319V38.528C66.82 35.553 72 28.375 72 20 72 8.972 63.028 0 52 0S32 8.972 32 20c0 8.375 5.18 15.553 12.5 18.528V216.5A7.5 7.5 0 0 0 52 224h8.5v157H39a7.5 7.5 0 0 0-7.5 7.5v42A7.5 7.5 0 0 0 39 438h360a7.5 7.5 0 0 0 7.5-7.5v-42a7.5 7.5 0 0 0-7.5-7.5zM59.5 111.5h319V134h-319v-22.5zm0 37.5h319v22.5h-319V149zM386 15c2.757 0 5 2.243 5 5s-2.243 5-5 5-5-2.243-5-5 2.243-5 5-5zm-7.5 59v22.5h-319V74h319zM52 15c2.757 0 5 2.243 5 5s-2.243 5-5 5-5-2.243-5-5 2.243-5 5-5zm7.5 171.5h319V209h-319v-22.5zm277 95.876l-94.571 60.417V224H336.5v58.376zm0 17.801V353h-82.685l82.685-52.823zm-140.429-17.786L101.5 342.809v-16.2l94.571-60.417v16.199zm0 17.8V353H113.41l82.661-52.809zm0-51.8L101.5 308.809V224h94.571v24.391zM75.5 224h11v136.5A7.5 7.5 0 0 0 94 368h109.571a7.5 7.5 0 0 0 7.5-7.5V224h15.857v136.5a7.5 7.5 0 0 0 7.5 7.5H344a7.5 7.5 0 0 0 7.5-7.5V224h11v157h-287V224zm316 199h-345v-27h345v27z"/></svg>