<svg xmlns="http://www.w3.org/2000/svg" width="528.711" height="512"><g stroke-width="2.084"><path d="M108.69 211.078v-76.785H80.335a9.452 9.452 0 0 1 0-18.904h28.353v-12.603H80.336a9.45 9.45 0 0 1-9.45-9.45 9.45 9.45 0 0 1 9.45-9.45h28.353V71.28H80.336a9.45 9.45 0 0 1-9.45-9.45c0-5.22 4.231-9.45 9.45-9.45h28.353v-6.302c0-22.583-18.37-40.956-40.956-40.956-22.583 0-40.954 18.373-40.954 40.956V211.08C10.151 223.695.237 243.212.004 264.27c-.415 37.25 29.54 67.976 66.77 68.493.324.005.646.008.971.008 17.918 0 34.772-6.907 47.548-19.506 13.011-12.83 20.175-29.96 20.175-48.23 0-21.37-9.916-41.174-26.78-53.957zm-40.957 83.886c-16.5 0-29.927-13.426-29.927-29.93 0-13.198 8.591-24.422 20.478-28.389v-67.698c0-5.22 4.23-9.452 9.45-9.452a9.45 9.45 0 0 1 9.45 9.452v67.698c11.886 3.967 20.478 15.191 20.478 28.39 0 16.503-13.426 29.93-29.93 29.93zm0 0"/><path d="M67.733 254.008c-6.08 0-11.027 4.947-11.027 11.027 0 6.08 4.947 11.026 11.027 11.026 6.082 0 11.03-4.947 11.03-11.026 0-6.08-4.948-11.027-11.03-11.027zm0 0"/></g><path d="M474.207 281.214c-13.828-18.404-28.114-37.425-39.643-57.84-3.043-5.382-11.53-5.382-14.556 0-11.547 20.415-25.832 39.436-39.66 57.84-28.03 37.32-54.505 72.574-54.505 114.268 0 58.387 45.494 105.87 101.434 105.87s101.434-47.483 101.434-105.87c0-41.694-26.474-76.95-54.503-114.268zm-72.288 43.689c13.98 0 25.358 11.875 25.358 26.467 0 14.593-11.377 26.468-25.358 26.468s-25.36-11.875-25.36-26.468c0-14.592 11.379-26.467 25.36-26.467zM390.998 445.84c-1.657 1.712-3.82 2.576-5.985 2.576-2.164 0-4.328-.864-5.984-2.576-3.297-3.44-3.297-9.034 0-12.475l84.528-88.224c3.297-3.441 8.656-3.441 11.952 0 3.297 3.44 3.314 9.034.017 12.475zm61.638 20.22c-13.981 0-25.36-11.874-25.36-26.466 0-14.593 11.379-26.468 25.36-26.468 13.98 0 25.358 11.875 25.358 26.468 0 14.592-11.377 26.467-25.358 26.467zM410.372 351.37a8.453 8.822 0 0 1-8.453 8.823 8.453 8.822 0 0 1-8.453-8.823 8.453 8.822 0 0 1 8.453-8.822 8.453 8.822 0 0 1 8.453 8.822zm50.717 88.225a8.453 8.822 0 0 1-8.453 8.822 8.453 8.822 0 0 1-8.453-8.822 8.453 8.822 0 0 1 8.453-8.823 8.453 8.822 0 0 1 8.453 8.823zM105.116 0c6.8 5.416 11.969 12.8 14.615 21.29a43.55 43.55 0 0 1 1.918 10.774c.038.747.056 1.499.056 2.254v6.748h-.716v20.245h.716V64h102.526v43.51c-55.29 3.06-83.086 13.994-102.526 24.14v79.387a72.492 72.492 0 0 1 15.86 16.547 72.043 72.043 0 0 1 10.373 22.459 72.585 72.585 0 0 1 1.957 10.291 73.411 73.411 0 0 1 .402 12.146c-.02.404-.063.802-.09 1.204a10.68 10.68 0 0 1 5.252-5.893C157.876 266.583 181.21 256 256.231 256c75.02 0 98.354 10.584 100.771 11.793a10.67 10.67 0 0 1 5.897 9.541v3.463c1.07-1.441 2.134-2.88 3.215-4.324 1.96-2.62 3.932-5.249 5.912-7.885 1.953-2.6 3.916-5.21 5.879-7.834a1612.45 1612.45 0 0 0 5.885-7.91c1.957-2.65 3.909-5.315 5.847-7.996a617.952 617.952 0 0 0 11.416-16.291 470.753 470.753 0 0 0 2.766-4.143 410.84 410.84 0 0 0 5.389-8.379 363.688 363.688 0 0 0 5.162-8.51c.839-1.43 1.664-2.866 2.48-4.308a8.669 8.669 0 0 1 3.531-3.422 9.691 9.691 0 0 1 2.272-.856 10.376 10.376 0 0 1 4.246-.103V176.77c0-15.49-8.188-29.666-21.365-36.978l-3.834-2.156c-20.23-11.387-47.008-26.447-113.47-30.125V64h149.335a10.66 10.66 0 0 0 10.666-10.666V10.668A10.66 10.66 0 0 0 437.565 0zM256.23 170.668c11.76 0 21.334 9.572 21.334 21.332 0 11.76-9.574 21.334-21.334 21.334S234.899 203.76 234.899 192s9.572-21.332 21.332-21.332zm.002 106.666c-49.678-.001-74.886 4.854-85.334 7.666v134.01c10.354 2.78 35.582 7.656 85.353 7.656 24.592 0 43.17-1.191 56.946-2.734-.15-.702-.303-1.402-.442-2.108a123.983 123.983 0 0 1-1.738-11.869 125.279 125.279 0 0 1-.594-12.219 112.345 112.345 0 0 1 .766-13.07c.335-2.865.777-5.706 1.318-8.523a127.547 127.547 0 0 1 3.086-12.535c.413-1.378.849-2.751 1.305-4.12 1.825-5.473 3.995-10.875 6.453-16.224 2.458-5.35 5.203-10.648 8.184-15.91a285.132 285.132 0 0 1 7.078-11.791c.966-1.53 1.953-3.058 2.95-4.584V284.99c-10.343-2.78-35.561-7.656-85.331-7.656zm-106.668 2.482a72.118 72.118 0 0 1-3.465 13.707 71.504 71.504 0 0 1-4.36 9.735 71.938 71.938 0 0 1-3.704 6.107 73.38 73.38 0 0 1-11.873 13.574 73.003 73.003 0 0 1-8.414 6.5 71.95 71.95 0 0 1-9.167 5.145 71.584 71.584 0 0 1-16.6 5.422 72.424 72.424 0 0 1-3.474.596c-.975.142-1.959.254-2.943.357v100.936c0 15.49 8.188 29.668 21.365 36.98l3.832 2.154C133.972 494.093 165.752 512 256.231 512c51.917 0 84.488-5.9 107.223-13.393l-.14-.09a114.717 114.717 0 0 1-11.132-8.48 117.184 117.184 0 0 1-4.162-3.764 118.645 118.645 0 0 1-13.115-14.703 120.03 120.03 0 0 1-4.877-6.974 120.752 120.752 0 0 1-5.748-9.867 121.502 121.502 0 0 1-3.715-7.791c-.323-.745-.635-1.496-.943-2.249-15.143 1.874-35.74 3.311-63.37 3.311-75.02 0-98.376-10.582-100.793-11.791a10.659 10.659 0 0 1-5.894-9.543z"/></svg>