<svg xmlns="http://www.w3.org/2000/svg" viewBox="0 0 512 512"><path d="M374.031 241.75c-6.671-54.43-49.629-97.28-104.076-103.813a124.765 124.765 0 0 0-14.121-.804c-48.118.074-91.444 29.154-109.742 73.657-18.298 44.503-7.957 95.649 26.193 129.548a93.606 93.606 0 0 1 28.857 66.5v13.733h109.714v-13.804a91.54 91.54 0 0 1 27.831-65.424 118.47 118.47 0 0 0 35.343-99.589v-.004zM256 512a27.476 27.476 0 0 0 25.862-18.286h-51.723A27.474 27.474 0 0 0 256 512zM210.286 466.286a9.155 9.155 0 0 0 9.143 9.143h73.143a9.155 9.155 0 0 0 9.143-9.143v-27.429h-91.429v27.429zM256 82.286c10.099 0 18.286-8.187 18.286-18.286V18.286C274.286 8.187 266.099 0 256 0s-18.286 8.187-18.286 18.286V64c0 10.099 8.187 18.286 18.286 18.286zM101.679 127.54c7.236 6.911 18.626 6.911 25.862 0a18.285 18.285 0 0 0 0-25.862L95.214 69.357a18.278 18.278 0 0 0-25.857 0 18.279 18.279 0 0 0 0 25.858l32.322 32.325zM82.286 256c0-10.099-8.187-18.286-18.286-18.286H18.286C8.191 237.724.01 245.905 0 256c.01 10.095 8.191 18.276 18.286 18.286H64c10.099 0 18.286-8.187 18.286-18.286zM119.356 379.699a18.285 18.285 0 0 0-17.677 4.761l-32.321 32.326a18.279 18.279 0 0 0 0 25.858c7.234 6.911 18.623 6.911 25.857 0l32.326-32.321a18.288 18.288 0 0 0-8.185-30.624zM410.321 384.46a18.288 18.288 0 0 0-30.622 8.184 18.285 18.285 0 0 0 4.761 17.677l32.326 32.321c7.234 6.911 18.623 6.911 25.857 0a18.279 18.279 0 0 0 0-25.858l-32.322-32.324zM493.714 237.714H448c-10.099 0-18.286 8.187-18.286 18.286s8.187 18.286 18.286 18.286h45.714c10.099 0 18.286-8.187 18.286-18.286s-8.187-18.286-18.286-18.286zM410.321 127.54l32.321-32.326a18.283 18.283 0 0 0-8.197-30.59 18.283 18.283 0 0 0-17.661 4.732l-32.326 32.321a18.285 18.285 0 0 0 0 25.862c7.237 6.912 18.628 6.912 25.863.001z"/></svg>