<svg xmlns="http://www.w3.org/2000/svg" viewBox="0 0 512 512"><path d="M502 0H10C4.478 0 0 4.478 0 10v48c0 5.522 4.478 10 10 10h74v65H64.435C42.966 133 25.5 150.495 25.5 172s17.466 39 38.935 39H84v38H64.435C42.966 249 25.5 266.495 25.5 288s17.466 39 38.935 39H84v38H64.435C42.966 365 25.5 382.495 25.5 404s17.466 39 38.935 39H84v59c0 5.522 4.478 10 10 10h40c5.522 0 10-4.478 10-10v-59h224v59c0 5.522 4.478 10 10 10h40c5.522 0 10-4.478 10-10v-59h43c5.522 0 10-4.478 10-10s-4.478-10-10-10h-43v-38h18.565c21.469 0 38.935-17.495 38.935-39s-17.466-39-38.935-39H428v-25.227c5.587 3.163 12.478 5.106 20.858 5.106H502c5.522 0 10-4.478 10-10V10c0-5.522-4.478-10-10-10zM84 423H64.435c-10.44 0-18.935-8.523-18.935-19s8.494-19 18.935-19H84v38zm0-116H64.435c-10.44 0-18.935-8.523-18.935-19s8.494-19 18.935-19H84v38zm0-116H64.435c-10.44 0-18.935-8.523-18.935-19s8.494-19 18.935-19H84v38zM476.857 20L450.5 46.357 424.143 20h52.714zm-80.999 0l40.5 40.5-45.858 45.857L344.643 60.5l40.5-40.5h10.715zm-39.001 0L330.5 46.357 304.143 20h52.714zm-80.999 0l40.5 40.5-45.858 45.857L224.643 60.5l40.5-40.5h10.715zm9.235 129.199c-9.341.254-18.762.502-27.956-1.171 2.314-2.319 10.011-12.593 13.38-12.917.088-.009.174-.01.256-.005 3.456.231 11.737 11.519 14.32 14.093zM256.357 120.5l-14.787 14.788c-6.325-9.881-7.955-21.764-8.197-23.834a64.563 64.563 0 0 0-2.163-16.1l25.147 25.146zM236.857 20L210.5 46.357 184.143 20h52.714zm-18.57 113H144V68c17.895 0 36.782-2.501 51.964 8.947 8.765 6.662 14.6 16.485 16.606 27.28 1.84 9.902 2.069 19.105 5.717 28.773zM20 48V20h15.857l28 28H20zm70.5-1.643L64.143 20h52.714L90.5 46.357zM124 492h-20V68h20v424zm-6.857-444l28-28h10.715l30.178 30.178A64.18 64.18 0 0 0 169.38 48h-52.237zM368 423H144v-38h224v38zm0-58H144v-38h224v38zm0-58H144v-38h224v38zm0-58H144v-38h224v38zm.001-58H144v-38h85.95a49.872 49.872 0 0 0 4.443 4.476l.001.001c8.832 7.805 19.657 11.763 32.177 11.763 0 0 101.171.047 101.43.082V191zm-20.384-41.76h-34.234l-28.74-28.74L330.5 74.643l45.857 45.857-28.74 28.74zM388 492V175.764c.193.104.386.2.579.307 12.941 7.188 19.232 18.02 19.232 33.115L408 492h-20zm9.594-333.795c-8.555-4.624-17.101-6.902-22.663-7.993l15.569-15.569 45.857 45.857-10.955 10.955c-4.136-14.219-13.548-25.542-27.808-33.25zM446.565 327c10.44 0 18.935 8.523 18.935 19s-8.494 19-18.935 19H428v-38h18.565zm2.293-60.121c-19.743 0-20.996-18.281-21.047-21.879v-27.669l22.688-22.688 41.5 41.5v30.736h-43.141zM492 207.857L464.643 180.5 492 153.143v54.714zm0-82.999l-41.5 41.5-45.857-45.858L450.5 74.643l41.5 41.5v8.715zm0-37L464.643 60.5 492 33.143v54.715z"/></svg>