<svg xmlns="http://www.w3.org/2000/svg" viewBox="0 0 60 60"><path d="M60 38.5h-3v-2a1 1 0 0 0-1-1h-6a1 1 0 0 0-1 1v2h-3v-5a1 1 0 0 0-1-1h-2v-2a1 1 0 0 0-1-1h-6v-7a1 1 0 0 0-1-1h-2v-7h1v2a1 1 0 0 0 1 1h7.254A5.753 5.753 0 0 0 48 11.754V7.246A5.753 5.753 0 0 0 42.254 1.5H37c-1.48 0-2.925.583-4 1.598V1.5a1 1 0 0 0-1-1h-4a1 1 0 0 0-1 1v1.598A5.864 5.864 0 0 0 23 1.5h-5.254A5.753 5.753 0 0 0 12 7.246v4.508a5.753 5.753 0 0 0 5.746 5.746H25a1 1 0 0 0 1-1v-2h1v7h-2a1 1 0 0 0-1 1v7h-6a1 1 0 0 0-1 1v2h-2a1 1 0 0 0-1 1v5h-3v-2a1 1 0 0 0-1-1H4a1 1 0 0 0-1 1v2H0v18h3v2a1 1 0 0 0 1 1h6a1 1 0 0 0 1-1v-2h38v2a1 1 0 0 0 1 1h6a1 1 0 0 0 1-1v-2h3v-18zm-29-36v1.848c-.034.009-.067.022-.101.031a3.793 3.793 0 0 1-.273.058c-.201.034-.404.06-.609.061h-.033a3.763 3.763 0 0 1-.609-.061 3.793 3.793 0 0 1-.273-.058c-.035-.008-.068-.022-.102-.031V2.5h2zm-2 12h2v7h-2v-7zm-13 20h28v4H16v-4zm-7 23H5v-20h4v20zm46 0h-4v-20h4v20z"/></svg>