<svg xmlns="http://www.w3.org/2000/svg" width="1105.327" height="1109.846" viewBox="0 0 113.185 113.677" preserveAspectRatio="xMidYMid"><path d="M80.838 48.99c-17.862 0-32.343 14.48-32.343 32.343 0 17.863 14.48 32.344 32.344 32.344 17.862 0 32.343-14.481 32.343-32.344S98.7 48.99 80.838 48.99zM69.563 63.794h27.275l-14.563 23.17h14.563v.001l-6.436 10.459h-28L77.93 73.368H63.585zM80.103 10.642V0C35.813.196-.032 36.152-.032 80.488c0 .202.014.401.016.603h10.61c.13-38.542 31.09-69.803 69.509-70.449z"/><path d="M80.103 32.839V22.204c-.081-.001-.16-.007-.241-.007-32.393 0-58.653 26.26-58.653 58.653 0 .08.006.16.006.24H31.85c.448-26.452 21.799-47.803 48.253-48.251z"/></svg>